<?xml version="1.0" encoding="UTF-8" standalone="no"?><svg xmlns="http://www.w3.org/2000/svg" xmlns:xlink="http://www.w3.org/1999/xlink" contentStyleType="text/css" height="564.8px" preserveAspectRatio="none" style="width:581px;height:564px;background:#FFFFFF;" version="1.1" viewBox="0 0 581 564" width="581.6px" zoomAndPan="magnify"><defs/><g><!--MD5=[fbf94b491cf1774327ba596d8eb6fec3]
cluster Garage--><g id="cluster_Garage"><path d="M6.8,4.8 L48.4,4.8 A3,3 0 0 1 50.4,6.8 L56,22.1125 L574,22.1125 A2,2 0 0 1 576,24.1125 L576,345.2 A2,2 0 0 1 574,347.2 L6.8,347.2 A2,2 0 0 1 4.8,345.2 L4.8,6.8 A2,2 0 0 1 6.8,4.8 " fill="none" style="stroke:#000000;stroke-width:1.2000000000000002;"/><line style="stroke:#000000;stroke-width:1.2000000000000002;" x1="4.8" x2="56" y1="22.1125" y2="22.1125"/><text fill="#000000" font-family="sans-serif" font-size="11.2" font-weight="bold" lengthAdjust="spacing" textLength="40.8" x="8" y="16.5391">Garage</text></g><!--MD5=[6dcbaa6394fe5eb3832b80492414015f]
cluster Thing(Parking)--><g id="cluster_Thing(Parking)"><path d="M308.4,38.4 L390.8,38.4 A3,3 0 0 1 392.8,40.4 L398.4,55.7125 L554.8,55.7125 A2,2 0 0 1 556.8,57.7125 L556.8,210.8 A2,2 0 0 1 554.8,212.8 L308.4,212.8 A2,2 0 0 1 306.4,210.8 L306.4,40.4 A2,2 0 0 1 308.4,38.4 " fill="none" style="stroke:#000000;stroke-width:1.2000000000000002;"/><line style="stroke:#000000;stroke-width:1.2000000000000002;" x1="306.4" x2="398.4" y1="55.7125" y2="55.7125"/><text fill="#000000" font-family="sans-serif" font-size="11.2" font-weight="bold" lengthAdjust="spacing" textLength="81.6" x="309.6" y="50.1391">Thing(Parking)</text></g><!--MD5=[76f015488299433496639620cea67f9c]
cluster Thing(Gate)--><g id="cluster_Thing(Gate)"><path d="M26,38.4 L92.4,38.4 A3,3 0 0 1 94.4,40.4 L100,55.7125 L285.2,55.7125 A2,2 0 0 1 287.2,57.7125 L287.2,210.8 A2,2 0 0 1 285.2,212.8 L26,212.8 A2,2 0 0 1 24,210.8 L24,40.4 A2,2 0 0 1 26,38.4 " fill="none" style="stroke:#000000;stroke-width:1.2000000000000002;"/><line style="stroke:#000000;stroke-width:1.2000000000000002;" x1="24" x2="100" y1="55.7125" y2="55.7125"/><text fill="#000000" font-family="sans-serif" font-size="11.2" font-weight="bold" lengthAdjust="spacing" textLength="65.6" x="27.2" y="50.1391">Thing(Gate)</text></g><!--MD5=[7772a2c0eb0eced9484310deb93e32c2]
cluster Gateway--><g id="cluster_Gateway"><path d="M207.6,251.2 L255.6,251.2 A3,3 0 0 1 257.6,253.2 L263.2,268.5125 L506,268.5125 A2,2 0 0 1 508,270.5125 L508,326 A2,2 0 0 1 506,328 L207.6,328 A2,2 0 0 1 205.6,326 L205.6,253.2 A2,2 0 0 1 207.6,251.2 " fill="none" style="stroke:#000000;stroke-width:1.2000000000000002;"/><line style="stroke:#000000;stroke-width:1.2000000000000002;" x1="205.6" x2="263.2" y1="268.5125" y2="268.5125"/><text fill="#000000" font-family="sans-serif" font-size="11.2" font-weight="bold" lengthAdjust="spacing" textLength="47.2" x="208.8" y="262.9391">Gateway</text></g><!--MD5=[2908e47dfa3d82cbdce4ded0838fdac2]
cluster Cloud--><g id="cluster_Cloud"><path d="M253.2,385.6 L286.8,385.6 A3,3 0 0 1 288.8,387.6 L294.4,402.9125 L563.6,402.9125 A2,2 0 0 1 565.6,404.9125 L565.6,557.2 A2,2 0 0 1 563.6,559.2 L253.2,559.2 A2,2 0 0 1 251.2,557.2 L251.2,387.6 A2,2 0 0 1 253.2,385.6 " fill="none" style="stroke:#000000;stroke-width:1.2000000000000002;"/><line style="stroke:#000000;stroke-width:1.2000000000000002;" x1="251.2" x2="294.4" y1="402.9125" y2="402.9125"/><text fill="#000000" font-family="sans-serif" font-size="11.2" font-weight="bold" lengthAdjust="spacing" textLength="32.8" x="254.4" y="397.3391">Cloud</text></g><!--MD5=[88723051146da09166554e42ec8ff111]
entity sensor--><g id="elem_sensor"><rect fill="#F1F1F1" height="36.5125" rx="2" ry="2" style="stroke:#181818;stroke-width:0.4000000000000001;" width="120.8" x="319.6" y="65.6"/><rect fill="#F1F1F1" height="8" style="stroke:#181818;stroke-width:0.4000000000000001;" width="12" x="424.4" y="69.6"/><rect fill="#F1F1F1" height="1.6" style="stroke:#181818;stroke-width:0.4000000000000001;" width="3.2" x="422.8" y="71.2"/><rect fill="#F1F1F1" height="1.6" style="stroke:#181818;stroke-width:0.4000000000000001;" width="3.2" x="422.8" y="74.4"/><text fill="#000000" font-family="sans-serif" font-size="11.2" lengthAdjust="spacing" textLength="88.8" x="331.6" y="91.7391">Ultrasonic Sensor</text></g><!--MD5=[fd71a720deb277bbd1af72c03fa35a41]
entity py--><g id="elem_py"><rect fill="#F1F1F1" height="36.5125" rx="2" ry="2" style="stroke:#181818;stroke-width:0.4000000000000001;" width="68" x="319.6" y="163.2"/><rect fill="#F1F1F1" height="8" style="stroke:#181818;stroke-width:0.4000000000000001;" width="12" x="371.6" y="167.2"/><rect fill="#F1F1F1" height="1.6" style="stroke:#181818;stroke-width:0.4000000000000001;" width="3.2" x="370" y="168.8"/><rect fill="#F1F1F1" height="1.6" style="stroke:#181818;stroke-width:0.4000000000000001;" width="3.2" x="370" y="172"/><text fill="#000000" font-family="sans-serif" font-size="11.2" lengthAdjust="spacing" textLength="36" x="331.6" y="189.3391">PyCom</text></g><!--MD5=[296df57ef9007dac74070e4982c50e2d]
entity actuator--><g id="elem_actuator"><rect fill="#F1F1F1" height="36.5125" rx="2" ry="2" style="stroke:#181818;stroke-width:0.4000000000000001;" width="56.8" x="486.8" y="163.2"/><rect fill="#F1F1F1" height="8" style="stroke:#181818;stroke-width:0.4000000000000001;" width="12" x="527.6" y="167.2"/><rect fill="#F1F1F1" height="1.6" style="stroke:#181818;stroke-width:0.4000000000000001;" width="3.2" x="526" y="168.8"/><rect fill="#F1F1F1" height="1.6" style="stroke:#181818;stroke-width:0.4000000000000001;" width="3.2" x="526" y="172"/><text fill="#000000" font-family="sans-serif" font-size="11.2" lengthAdjust="spacing" textLength="24.8" x="498.8" y="189.3391">Light</text></g><!--MD5=[407bca6816da8e17275c06ae35550d37]
entity sensor2--><g id="elem_sensor2"><rect fill="#F1F1F1" height="36.5125" rx="2" ry="2" style="stroke:#181818;stroke-width:0.4000000000000001;" width="96.8" x="177.2" y="65.6"/><rect fill="#F1F1F1" height="8" style="stroke:#181818;stroke-width:0.4000000000000001;" width="12" x="258" y="69.6"/><rect fill="#F1F1F1" height="1.6" style="stroke:#181818;stroke-width:0.4000000000000001;" width="3.2" x="256.4" y="71.2"/><rect fill="#F1F1F1" height="1.6" style="stroke:#181818;stroke-width:0.4000000000000001;" width="3.2" x="256.4" y="74.4"/><text fill="#000000" font-family="sans-serif" font-size="11.2" lengthAdjust="spacing" textLength="64.8" x="189.2" y="91.7391">RFID Sensor</text></g><!--MD5=[fac083d2e5a2bd5422ced5b2f2f94301]
entity py2--><g id="elem_py2"><rect fill="#F1F1F1" height="36.5125" rx="2" ry="2" style="stroke:#181818;stroke-width:0.4000000000000001;" width="68" x="206" y="163.2"/><rect fill="#F1F1F1" height="8" style="stroke:#181818;stroke-width:0.4000000000000001;" width="12" x="258" y="167.2"/><rect fill="#F1F1F1" height="1.6" style="stroke:#181818;stroke-width:0.4000000000000001;" width="3.2" x="256.4" y="168.8"/><rect fill="#F1F1F1" height="1.6" style="stroke:#181818;stroke-width:0.4000000000000001;" width="3.2" x="256.4" y="172"/><text fill="#000000" font-family="sans-serif" font-size="11.2" lengthAdjust="spacing" textLength="36" x="218" y="189.3391">PyCom</text></g><!--MD5=[577d68a44e189e05197e7ccba36703f6]
entity actuator2--><g id="elem_actuator2"><rect fill="#F1F1F1" height="36.5125" rx="2" ry="2" style="stroke:#181818;stroke-width:0.4000000000000001;" width="93.6" x="37.2" y="163.2"/><rect fill="#F1F1F1" height="8" style="stroke:#181818;stroke-width:0.4000000000000001;" width="12" x="114.8" y="167.2"/><rect fill="#F1F1F1" height="1.6" style="stroke:#181818;stroke-width:0.4000000000000001;" width="3.2" x="113.2" y="168.8"/><rect fill="#F1F1F1" height="1.6" style="stroke:#181818;stroke-width:0.4000000000000001;" width="3.2" x="113.2" y="172"/><text fill="#000000" font-family="sans-serif" font-size="11.2" lengthAdjust="spacing" textLength="61.6" x="49.2" y="189.3391">Servo Motor</text></g><!--MD5=[e701bbac852ce3c7f1c3d2193e52d58f]
entity broker--><g id="elem_broker"><rect fill="#F1F1F1" height="36.5125" rx="2" ry="2" style="stroke:#181818;stroke-width:0.4000000000000001;" width="100.8" x="218.4" y="278.4"/><rect fill="#F1F1F1" height="8" style="stroke:#181818;stroke-width:0.4000000000000001;" width="12" x="303.2" y="282.4"/><rect fill="#F1F1F1" height="1.6" style="stroke:#181818;stroke-width:0.4000000000000001;" width="3.2" x="301.6" y="284"/><rect fill="#F1F1F1" height="1.6" style="stroke:#181818;stroke-width:0.4000000000000001;" width="3.2" x="301.6" y="287.2"/><text fill="#000000" font-family="sans-serif" font-size="11.2" lengthAdjust="spacing" textLength="68.8" x="230.4" y="304.5391">MQTT Broker</text></g><!--MD5=[49831444eef5d94858aeb779d5d018af]
entity distributor--><g id="elem_distributor"><rect fill="#F1F1F1" height="36.5125" rx="2" ry="2" style="stroke:#181818;stroke-width:0.4000000000000001;" width="84" x="410.8" y="278.4"/><rect fill="#F1F1F1" height="8" style="stroke:#181818;stroke-width:0.4000000000000001;" width="12" x="478.8" y="282.4"/><rect fill="#F1F1F1" height="1.6" style="stroke:#181818;stroke-width:0.4000000000000001;" width="3.2" x="477.2" y="284"/><rect fill="#F1F1F1" height="1.6" style="stroke:#181818;stroke-width:0.4000000000000001;" width="3.2" x="477.2" y="287.2"/><text fill="#000000" font-family="sans-serif" font-size="11.2" lengthAdjust="spacing" textLength="52" x="422.8" y="304.5391">Distributor</text></g><!--MD5=[2b9539b446c540c03d44e9a2528f147d]
entity realtimedb--><g id="elem_realtimedb"><path d="M264,518.4 C264,510.4 327.2,510.4 327.2,510.4 C327.2,510.4 390.4,510.4 390.4,518.4 L390.4,538.1125 C390.4,546.1125 327.2,546.1125 327.2,546.1125 C327.2,546.1125 264,546.1125 264,538.1125 L264,518.4 " fill="#F1F1F1" style="stroke:#181818;stroke-width:0.4000000000000001;"/><path d="M264,518.4 C264,526.4 327.2,526.4 327.2,526.4 C327.2,526.4 390.4,526.4 390.4,518.4 " fill="none" style="stroke:#181818;stroke-width:0.4000000000000001;"/><text fill="#000000" font-family="sans-serif" font-size="11.2" lengthAdjust="spacing" textLength="110.4" x="272" y="539.7391">Firebase Realtime DB</text></g><!--MD5=[10fb712a5dfe6528bb3d0328de120a66]
entity documentdb--><g id="elem_documentdb"><path d="M418.8,518.4 C418.8,510.4 485.6,510.4 485.6,510.4 C485.6,510.4 552.4,510.4 552.4,518.4 L552.4,538.1125 C552.4,546.1125 485.6,546.1125 485.6,546.1125 C485.6,546.1125 418.8,546.1125 418.8,538.1125 L418.8,518.4 " fill="#F1F1F1" style="stroke:#181818;stroke-width:0.4000000000000001;"/><path d="M418.8,518.4 C418.8,526.4 485.6,526.4 485.6,526.4 C485.6,526.4 552.4,526.4 552.4,518.4 " fill="none" style="stroke:#181818;stroke-width:0.4000000000000001;"/><text fill="#000000" font-family="sans-serif" font-size="11.2" lengthAdjust="spacing" textLength="117.6" x="426.8" y="539.7391">Firebase Document DB</text></g><!--MD5=[e2307af040e3f87d22824e7603ca28ec]
entity api--><g id="elem_api"><rect fill="#F1F1F1" height="36.5125" rx="2" ry="2" style="stroke:#181818;stroke-width:0.4000000000000001;" width="48.8" x="428.4" y="412.8"/><rect fill="#F1F1F1" height="8" style="stroke:#181818;stroke-width:0.4000000000000001;" width="12" x="461.2" y="416.8"/><rect fill="#F1F1F1" height="1.6" style="stroke:#181818;stroke-width:0.4000000000000001;" width="3.2" x="459.6" y="418.4"/><rect fill="#F1F1F1" height="1.6" style="stroke:#181818;stroke-width:0.4000000000000001;" width="3.2" x="459.6" y="421.6"/><text fill="#000000" font-family="sans-serif" font-size="11.2" lengthAdjust="spacing" textLength="16.8" x="440.4" y="438.9391">API</text></g><!--MD5=[08af8945a84acfe1eabc0963aa87c412]
entity web--><g id="elem_web"><rect fill="#F1F1F1" height="36.5125" rx="2" ry="2" style="stroke:#181818;stroke-width:0.4000000000000001;" width="64.8" x="297.2" y="412.8"/><rect fill="#F1F1F1" height="8" style="stroke:#181818;stroke-width:0.4000000000000001;" width="12" x="346" y="416.8"/><rect fill="#F1F1F1" height="1.6" style="stroke:#181818;stroke-width:0.4000000000000001;" width="3.2" x="344.4" y="418.4"/><rect fill="#F1F1F1" height="1.6" style="stroke:#181818;stroke-width:0.4000000000000001;" width="3.2" x="344.4" y="421.6"/><text fill="#000000" font-family="sans-serif" font-size="11.2" lengthAdjust="spacing" textLength="32.8" x="309.2" y="438.9391">WebUI</text></g><!--MD5=[52340758e4ea7379191b20da15c712ca]
link sensor to py--><g id="link_sensor_py"><path d="M374.064,106.376 C369.736,122.112 363.904,143.336 359.568,159.096 " fill="none" id="sensor-py" style="stroke:#181818;stroke-width:0.8000000000000002;"/><polygon fill="#181818" points="358.504,162.976,363.4994,156.8829,359.5652,159.1193,357.3287,155.1851,358.504,162.976" style="stroke:#181818;stroke-width:0.8000000000000002;"/><polygon fill="#181818" points="375.16,102.408,370.1814,108.5148,374.1095,106.2676,376.3567,110.1957,375.16,102.408" style="stroke:#181818;stroke-width:0.8000000000000002;"/><text fill="#000000" font-family="sans-serif" font-size="10.4" lengthAdjust="spacing" textLength="70.4" x="368.8" y="136.6148">checking depth</text></g><!--MD5=[eca0c6a07fbc339af70b8ac1221e1c27]
link py to actuator--><g id="link_py_actuator"><path d="M387.872,181.6 C415.752,181.6 454.84,181.6 482.328,181.6 " fill="none" id="py-to-actuator" style="stroke:#181818;stroke-width:0.8000000000000002;"/><polygon fill="#181818" points="486.64,181.6,479.44,178.4,482.64,181.6,479.44,184.8,486.64,181.6" style="stroke:#181818;stroke-width:0.8000000000000002;"/><text fill="#000000" font-family="sans-serif" font-size="10.4" lengthAdjust="spacing" textLength="69.6" x="402.4" y="176.6148">availability light</text></g><!--MD5=[7b3a63361264bf399f1dfe4efcfcd0d7]
link sensor2 to py2--><g id="link_sensor2_py2"><path d="M228.84,106.376 C231.184,122.04 234.352,143.16 236.712,158.896 " fill="none" id="sensor2-py2" style="stroke:#181818;stroke-width:0.8000000000000002;"/><polygon fill="#181818" points="237.328,162.976,239.4224,155.3804,236.7335,159.0204,233.0935,156.3315,237.328,162.976" style="stroke:#181818;stroke-width:0.8000000000000002;"/><polygon fill="#181818" points="228.24,102.408,226.1456,110.0036,228.8345,106.3636,232.4745,109.0525,228.24,102.408" style="stroke:#181818;stroke-width:0.8000000000000002;"/><text fill="#000000" font-family="sans-serif" font-size="10.4" lengthAdjust="spacing" textLength="42.4" x="234.4" y="136.6148">read chip</text></g><!--MD5=[3bbeedd5f08fd478c47b2b76146b156c]
reverse link actuator2 to py2--><g id="link_actuator2_py2"><path d="M134.808,181.6 C158.088,181.6 185.064,181.6 205.872,181.6 " fill="none" id="actuator2-backto-py2" style="stroke:#181818;stroke-width:0.8000000000000002;"/><polygon fill="#181818" points="130.808,181.6,138.008,184.8,134.808,181.6,138.008,178.4,130.808,181.6" style="stroke:#181818;stroke-width:0.8000000000000002;"/><text fill="#000000" font-family="sans-serif" font-size="10.4" lengthAdjust="spacing" textLength="45.6" x="145.6" y="176.6148">open gate</text></g><!--MD5=[12fbb059d29e9bfb2c59980d6affabd6]
link py to broker--><g id="link_py_broker"><path d="M343.6,203.856 C338.184,214.624 331.008,227.632 323.2,238.4 C313.608,251.632 301.2,264.992 290.656,275.512 " fill="none" id="py-broker" style="stroke:#181818;stroke-width:0.8000000000000002;"/><polygon fill="#181818" points="287.736,278.4,295.1069,275.6162,290.5815,275.5888,290.6089,271.0634,287.736,278.4" style="stroke:#181818;stroke-width:0.8000000000000002;"/><polygon fill="#181818" points="345.52,200,339.4443,205.0166,343.7357,203.58,345.1723,207.8714,345.52,200" style="stroke:#181818;stroke-width:0.8000000000000002;"/></g><!--MD5=[5b951a74e1fb7b1ddc039e0913ed18d7]
link py2 to broker--><g id="link_py2_broker"><path d="M245.488,204.04 C250.616,224.264 258.224,254.288 263.344,274.472 " fill="none" id="py2-broker" style="stroke:#181818;stroke-width:0.8000000000000002;"/><polygon fill="#181818" points="264.328,278.376,265.6593,270.6102,263.3444,274.4988,259.4558,272.1839,264.328,278.376" style="stroke:#181818;stroke-width:0.8000000000000002;"/><polygon fill="#181818" points="244.496,200.152,243.1647,207.9178,245.4796,204.0292,249.3682,206.3441,244.496,200.152" style="stroke:#181818;stroke-width:0.8000000000000002;"/><text fill="#000000" font-family="sans-serif" font-size="10.4" lengthAdjust="spacing" textLength="62.4" x="253.6" y="235.8148">Wi-Fi (MQTT)</text></g><!--MD5=[3771bf524a0f82775a2dc01b90de99cf]
link broker to distributor--><g id="link_broker_distributor"><path d="M323.408,296.8 C349.944,296.8 381.48,296.8 406.776,296.8 " fill="none" id="broker-distributor" style="stroke:#181818;stroke-width:0.8000000000000002;"/><polygon fill="#181818" points="410.784,296.8,403.584,293.6,406.784,296.8,403.584,300,410.784,296.8" style="stroke:#181818;stroke-width:0.8000000000000002;"/><polygon fill="#181818" points="319.32,296.8,326.52,300,323.32,296.8,326.52,293.6,319.32,296.8" style="stroke:#181818;stroke-width:0.8000000000000002;"/><text fill="#000000" font-family="sans-serif" font-size="10.4" lengthAdjust="spacing" textLength="62.4" x="333.8" y="291.8148">Wi-Fi (MQTT)</text></g><!--MD5=[44e5c952b73b9c4d131ba4175e513f16]
link web to api--><g id="link_web_api"><path d="M366.48,431.2 C384.944,431.2 406.96,431.2 424.136,431.2 " fill="none" id="web-api" style="stroke:#181818;stroke-width:0.8000000000000002;"/><polygon fill="#181818" points="428.168,431.2,420.968,428,424.168,431.2,420.968,434.4,428.168,431.2" style="stroke:#181818;stroke-width:0.8000000000000002;"/><polygon fill="#181818" points="362.288,431.2,369.488,434.4,366.288,431.2,369.488,428,362.288,431.2" style="stroke:#181818;stroke-width:0.8000000000000002;"/><text fill="#000000" font-family="sans-serif" font-size="10.4" lengthAdjust="spacing" textLength="36.8" x="376.8" y="426.2148">sockets</text></g><!--MD5=[44e5c952b73b9c4d131ba4175e513f16]
link web to api--><g id="link_web_api"><path d="M366.144,443.864 C378.392,446.696 392.144,448.352 404.8,446.4 C411.24,445.408 418,443.704 424.344,441.784 " fill="none" id="web-api-1" style="stroke:#181818;stroke-width:0.8000000000000002;"/><polygon fill="#181818" points="428.232,440.568,420.4062,439.6532,424.4129,441.7572,422.3089,445.7639,428.232,440.568" style="stroke:#181818;stroke-width:0.8000000000000002;"/><polygon fill="#181818" points="362.056,442.864,368.2917,447.6802,365.9419,443.8126,369.8095,441.4628,362.056,442.864" style="stroke:#181818;stroke-width:0.8000000000000002;"/><text fill="#000000" font-family="sans-serif" font-size="10.4" lengthAdjust="spacing" textLength="17.6" x="386.4" y="443.8148">http</text></g><!--MD5=[e2a2504b23e16ce9f7386150b129f2d2]
link api to realtimedb--><g id="link_api_realtimedb"><path d="M426.2,452.24 C404.728,468.592 374.68,491.464 353.328,507.712 " fill="none" id="api-realtimedb" style="stroke:#181818;stroke-width:0.8000000000000002;"/><polygon fill="#181818" points="349.984,510.256,357.6528,508.4478,353.1689,507.836,353.7807,503.352,349.984,510.256" style="stroke:#181818;stroke-width:0.8000000000000002;"/><polygon fill="#181818" points="429.472,449.76,421.8032,451.5682,426.2871,452.18,425.6753,456.664,429.472,449.76" style="stroke:#181818;stroke-width:0.8000000000000002;"/><text fill="#000000" font-family="sans-serif" font-size="10.4" lengthAdjust="spacing" textLength="47.2" x="397.6" y="483.8148">availability</text></g><!--MD5=[3b08bbfb039112ccffaa42ca08d03cbb]
link api to documentdb--><g id="link_api_documentdb"><path d="M460.264,453.744 C465.672,469.52 472.96,490.76 478.328,506.408 " fill="none" id="api-documentdb" style="stroke:#181818;stroke-width:0.8000000000000002;"/><polygon fill="#181818" points="479.648,510.256,480.3502,502.4083,478.3557,506.4705,474.2934,504.476,479.648,510.256" style="stroke:#181818;stroke-width:0.8000000000000002;"/><polygon fill="#181818" points="458.896,449.76,458.1938,457.6077,460.1883,453.5455,464.2506,455.54,458.896,449.76" style="stroke:#181818;stroke-width:0.8000000000000002;"/><text fill="#000000" font-family="sans-serif" font-size="10.4" lengthAdjust="spacing" textLength="56.8" x="471.2" y="483.8148">historic data</text></g><!--MD5=[8801b18f9bbfdb8b6bb06c85efdd0409]
link distributor to api--><g id="link_distributor_api"><path d="M452.8,319.264 C452.8,343.888 452.8,383.864 452.8,408.568 " fill="none" id="distributor-api" style="stroke:#181818;stroke-width:0.8000000000000002;"/><polygon fill="#181818" points="452.8,412.696,456,405.496,452.8,408.696,449.6,405.496,452.8,412.696" style="stroke:#181818;stroke-width:0.8000000000000002;"/><polygon fill="#181818" points="452.8,315.232,449.6,322.432,452.8,319.232,456,322.432,452.8,315.232" style="stroke:#181818;stroke-width:0.8000000000000002;"/><text fill="#000000" font-family="sans-serif" font-size="10.4" lengthAdjust="spacing" textLength="36.8" x="453.6" y="370.2148">sockets</text></g><!--MD5=[b76813f09d0702ff9e098287235a92e9]
@startuml

package Garage {
    package Thing(Parking) {
        component "Ultrasonic Sensor" as sensor
        component "PyCom" as py
        component "Light" as actuator

        sensor <-d-> py : checking depth
        actuator <-l- py : availability light
    }

    package Thing(Gate) {
        component "RFID Sensor" as sensor2
        component "PyCom" as py2
        component "Servo Motor" as actuator2

        sensor2 <-d-> py2 : read chip
        actuator2 <-r- py2 : open gate
    }

    package Gateway {
        component "MQTT Broker" as broker
        component Distributor as distributor
    }

    py <-d-> broker
    py2 <-d-> broker : Wi-Fi (MQTT)
    broker <-r-> distributor : Wi-Fi (MQTT)
}

package Cloud {
    database "Firebase Realtime DB" as realtimedb
    database "Firebase Document DB" as documentdb

    component API as api

    component WebUI as web

    api <-l-> web : sockets
    api <-l-> web : http
    api <-d-> realtimedb : availability
    api <-d-> documentdb : historic data

    distributor <- -> api : sockets
}

@enduml

PlantUML version 1.2022.7(Mon Aug 22 19:01:30 CEST 2022)
(GPL source distribution)
Java Runtime: OpenJDK Runtime Environment
JVM: OpenJDK 64-Bit Server VM
Default Encoding: Cp1252
Language: de
Country: DE
--></g></svg>