<?xml version="1.0" encoding="UTF-8" standalone="no"?><svg xmlns="http://www.w3.org/2000/svg" xmlns:xlink="http://www.w3.org/1999/xlink" contentStyleType="text/css" height="745px" preserveAspectRatio="none" style="width:798px;height:745px;background:#FFFFFF;" version="1.1" viewBox="0 0 798 745" width="798px" zoomAndPan="magnify"><defs/><g><!--MD5=[fbf94b491cf1774327ba596d8eb6fec3]
cluster Garage--><g id="cluster_Garage"><path d="M8.5,6.0137 L60.5,6.0137 A3.75,3.75 0 0 1 63,8.5137 L70,30.6348 L788.5,30.6348 A2.5,2.5 0 0 1 791,33.1348 L791,455.5137 A2.5,2.5 0 0 1 788.5,458.0137 L8.5,458.0137 A2.5,2.5 0 0 1 6,455.5137 L6,8.5137 A2.5,2.5 0 0 1 8.5,6.0137 " fill="none" style="stroke:#000000;stroke-width:1.5;"/><line style="stroke:#000000;stroke-width:1.5;" x1="6" x2="70" y1="30.6348" y2="30.6348"/><text fill="#000000" font-family="sans-serif" font-size="14" font-weight="bold" lengthAdjust="spacing" textLength="51" x="10" y="23.1211">Garage</text></g><!--MD5=[5aae80525a0ac6c3118707483e5f4281]
cluster Spot--><g id="cluster_Spot"><path d="M439.5,51.0137 L472.5,51.0137 A3.75,3.75 0 0 1 475,53.5137 L482,75.6348 L764.5,75.6348 A2.5,2.5 0 0 1 767,78.1348 L767,431.5137 A2.5,2.5 0 0 1 764.5,434.0137 L439.5,434.0137 A2.5,2.5 0 0 1 437,431.5137 L437,53.5137 A2.5,2.5 0 0 1 439.5,51.0137 " fill="none" style="stroke:#000000;stroke-width:1.5;"/><line style="stroke:#000000;stroke-width:1.5;" x1="437" x2="482" y1="75.6348" y2="75.6348"/><text fill="#000000" font-family="sans-serif" font-size="14" font-weight="bold" lengthAdjust="spacing" textLength="32" x="441" y="68.1211">Spot</text></g><!--MD5=[85af98888db1475b0cc99217eb7b7735]
cluster Gate--><g id="cluster_Gate"><path d="M32.5,51.0137 L66.5,51.0137 A3.75,3.75 0 0 1 69,53.5137 L76,75.6348 L410.5,75.6348 A2.5,2.5 0 0 1 413,78.1348 L413,278.5137 A2.5,2.5 0 0 1 410.5,281.0137 L32.5,281.0137 A2.5,2.5 0 0 1 30,278.5137 L30,53.5137 A2.5,2.5 0 0 1 32.5,51.0137 " fill="none" style="stroke:#000000;stroke-width:1.5;"/><line style="stroke:#000000;stroke-width:1.5;" x1="30" x2="76" y1="75.6348" y2="75.6348"/><text fill="#000000" font-family="sans-serif" font-size="14" font-weight="bold" lengthAdjust="spacing" textLength="33" x="34" y="68.1211">Gate</text></g><!--MD5=[7772a2c0eb0eced9484310deb93e32c2]
cluster Gateway--><g id="cluster_Gateway"><path d="M272.5,332.0137 L332.5,332.0137 A3.75,3.75 0 0 1 335,334.5137 L342,356.6348 L405.5,356.6348 A2.5,2.5 0 0 1 408,359.1348 L408,431.5137 A2.5,2.5 0 0 1 405.5,434.0137 L272.5,434.0137 A2.5,2.5 0 0 1 270,431.5137 L270,334.5137 A2.5,2.5 0 0 1 272.5,332.0137 " fill="none" style="stroke:#000000;stroke-width:1.5;"/><line style="stroke:#000000;stroke-width:1.5;" x1="270" x2="342" y1="356.6348" y2="356.6348"/><text fill="#000000" font-family="sans-serif" font-size="14" font-weight="bold" lengthAdjust="spacing" textLength="59" x="274" y="349.1211">Gateway</text></g><!--MD5=[2908e47dfa3d82cbdce4ded0838fdac2]
cluster Cloud--><g id="cluster_Cloud"><path d="M22.5,509.0137 L64.5,509.0137 A3.75,3.75 0 0 1 67,511.5137 L74,533.6348 L547.5,533.6348 A2.5,2.5 0 0 1 550,536.1348 L550,735.5137 A2.5,2.5 0 0 1 547.5,738.0137 L22.5,738.0137 A2.5,2.5 0 0 1 20,735.5137 L20,511.5137 A2.5,2.5 0 0 1 22.5,509.0137 " fill="none" style="stroke:#000000;stroke-width:1.5;"/><line style="stroke:#000000;stroke-width:1.5;" x1="20" x2="74" y1="533.6348" y2="533.6348"/><text fill="#000000" font-family="sans-serif" font-size="14" font-weight="bold" lengthAdjust="spacing" textLength="41" x="24" y="526.1211">Cloud</text></g><!--MD5=[0171924d90e4b8889794b7c9bca7f9d1]
entity sensor1--><g id="elem_sensor1"><rect fill="#F1F1F1" height="48.6211" rx="2.5" ry="2.5" style="stroke:#181818;stroke-width:0.5;" width="171" x="579.5" y="88.0137"/><rect fill="#F1F1F1" height="10" style="stroke:#181818;stroke-width:0.5;" width="15" x="730.5" y="93.0137"/><rect fill="#F1F1F1" height="2" style="stroke:#181818;stroke-width:0.5;" width="4" x="728.5" y="95.0137"/><rect fill="#F1F1F1" height="2" style="stroke:#181818;stroke-width:0.5;" width="4" x="728.5" y="99.0137"/><text fill="#000000" font-family="sans-serif" font-size="14" lengthAdjust="spacing" textLength="131" x="594.5" y="123.1211">Ultrasonic Sensor [1]</text></g><!--MD5=[fbef39232671fc7ed7432be1ee1da8ab]
entity actuator1--><g id="elem_actuator1"><rect fill="#F1F1F1" height="48.6211" rx="2.5" ry="2.5" style="stroke:#181818;stroke-width:0.5;" width="91" x="453.5" y="88.0137"/><rect fill="#F1F1F1" height="10" style="stroke:#181818;stroke-width:0.5;" width="15" x="524.5" y="93.0137"/><rect fill="#F1F1F1" height="2" style="stroke:#181818;stroke-width:0.5;" width="4" x="522.5" y="95.0137"/><rect fill="#F1F1F1" height="2" style="stroke:#181818;stroke-width:0.5;" width="4" x="522.5" y="99.0137"/><text fill="#000000" font-family="sans-serif" font-size="14" lengthAdjust="spacing" textLength="51" x="468.5" y="123.1211">Light [1]</text></g><!--MD5=[407bca6816da8e17275c06ae35550d37]
entity sensor2--><g id="elem_sensor2"><rect fill="#F1F1F1" height="48.6211" rx="2.5" ry="2.5" style="stroke:#181818;stroke-width:0.5;" width="171" x="453.5" y="369.0137"/><rect fill="#F1F1F1" height="10" style="stroke:#181818;stroke-width:0.5;" width="15" x="604.5" y="374.0137"/><rect fill="#F1F1F1" height="2" style="stroke:#181818;stroke-width:0.5;" width="4" x="602.5" y="376.0137"/><rect fill="#F1F1F1" height="2" style="stroke:#181818;stroke-width:0.5;" width="4" x="602.5" y="380.0137"/><text fill="#000000" font-family="sans-serif" font-size="14" lengthAdjust="spacing" textLength="131" x="468.5" y="404.1211">Ultrasonic Sensor [2]</text></g><!--MD5=[577d68a44e189e05197e7ccba36703f6]
entity actuator2--><g id="elem_actuator2"><rect fill="#F1F1F1" height="48.6211" rx="2.5" ry="2.5" style="stroke:#181818;stroke-width:0.5;" width="91" x="659.5" y="369.0137"/><rect fill="#F1F1F1" height="10" style="stroke:#181818;stroke-width:0.5;" width="15" x="730.5" y="374.0137"/><rect fill="#F1F1F1" height="2" style="stroke:#181818;stroke-width:0.5;" width="4" x="728.5" y="376.0137"/><rect fill="#F1F1F1" height="2" style="stroke:#181818;stroke-width:0.5;" width="4" x="728.5" y="380.0137"/><text fill="#000000" font-family="sans-serif" font-size="14" lengthAdjust="spacing" textLength="51" x="674.5" y="404.1211">Light [2]</text></g><!--MD5=[fd71a720deb277bbd1af72c03fa35a41]
entity py--><g id="elem_py"><rect fill="#F1F1F1" height="48.6211" rx="2.5" ry="2.5" style="stroke:#181818;stroke-width:0.5;" width="140" x="469" y="216.0137"/><rect fill="#F1F1F1" height="10" style="stroke:#181818;stroke-width:0.5;" width="15" x="589" y="221.0137"/><rect fill="#F1F1F1" height="2" style="stroke:#181818;stroke-width:0.5;" width="4" x="587" y="223.0137"/><rect fill="#F1F1F1" height="2" style="stroke:#181818;stroke-width:0.5;" width="4" x="587" y="227.0137"/><text fill="#000000" font-family="sans-serif" font-size="14" lengthAdjust="spacing" textLength="100" x="484" y="251.1211">Micro Controller</text></g><!--MD5=[34531f97174f8d8713f5c5757d434d85]
entity sensorGate--><g id="elem_sensorGate"><rect fill="#F1F1F1" height="48.6211" rx="2.5" ry="2.5" style="stroke:#181818;stroke-width:0.5;" width="121" x="266.5" y="88.0137"/><rect fill="#F1F1F1" height="10" style="stroke:#181818;stroke-width:0.5;" width="15" x="367.5" y="93.0137"/><rect fill="#F1F1F1" height="2" style="stroke:#181818;stroke-width:0.5;" width="4" x="365.5" y="95.0137"/><rect fill="#F1F1F1" height="2" style="stroke:#181818;stroke-width:0.5;" width="4" x="365.5" y="99.0137"/><text fill="#000000" font-family="sans-serif" font-size="14" lengthAdjust="spacing" textLength="81" x="281.5" y="123.1211">RFID Sensor</text></g><!--MD5=[fac083d2e5a2bd5422ced5b2f2f94301]
entity py2--><g id="elem_py2"><rect fill="#F1F1F1" height="48.6211" rx="2.5" ry="2.5" style="stroke:#181818;stroke-width:0.5;" width="140" x="257" y="216.0137"/><rect fill="#F1F1F1" height="10" style="stroke:#181818;stroke-width:0.5;" width="15" x="377" y="221.0137"/><rect fill="#F1F1F1" height="2" style="stroke:#181818;stroke-width:0.5;" width="4" x="375" y="223.0137"/><rect fill="#F1F1F1" height="2" style="stroke:#181818;stroke-width:0.5;" width="4" x="375" y="227.0137"/><text fill="#000000" font-family="sans-serif" font-size="14" lengthAdjust="spacing" textLength="100" x="272" y="251.1211">Micro Controller</text></g><!--MD5=[dec9e52f46170bfdaccab6dad5305bab]
entity actuatorGate--><g id="elem_actuatorGate"><rect fill="#F1F1F1" height="48.6211" rx="2.5" ry="2.5" style="stroke:#181818;stroke-width:0.5;" width="117" x="46.5" y="216.0137"/><rect fill="#F1F1F1" height="10" style="stroke:#181818;stroke-width:0.5;" width="15" x="143.5" y="221.0137"/><rect fill="#F1F1F1" height="2" style="stroke:#181818;stroke-width:0.5;" width="4" x="141.5" y="223.0137"/><rect fill="#F1F1F1" height="2" style="stroke:#181818;stroke-width:0.5;" width="4" x="141.5" y="227.0137"/><text fill="#000000" font-family="sans-serif" font-size="14" lengthAdjust="spacing" textLength="77" x="61.5" y="251.1211">Servo Motor</text></g><!--MD5=[49831444eef5d94858aeb779d5d018af]
entity distributor--><g id="elem_distributor"><rect fill="#F1F1F1" height="48.6211" rx="2.5" ry="2.5" style="stroke:#181818;stroke-width:0.5;" width="105" x="286.5" y="369.0137"/><rect fill="#F1F1F1" height="10" style="stroke:#181818;stroke-width:0.5;" width="15" x="371.5" y="374.0137"/><rect fill="#F1F1F1" height="2" style="stroke:#181818;stroke-width:0.5;" width="4" x="369.5" y="376.0137"/><rect fill="#F1F1F1" height="2" style="stroke:#181818;stroke-width:0.5;" width="4" x="369.5" y="380.0137"/><text fill="#000000" font-family="sans-serif" font-size="14" lengthAdjust="spacing" textLength="65" x="301.5" y="404.1211">Distributor</text></g><!--MD5=[2b9539b446c540c03d44e9a2528f147d]
entity realtimedb--><g id="elem_realtimedb"><path d="M36,556.5137 C36,546.5137 115,546.5137 115,546.5137 C115,546.5137 194,546.5137 194,556.5137 L194,584.1348 C194,594.1348 115,594.1348 115,594.1348 C115,594.1348 36,594.1348 36,584.1348 L36,556.5137 " fill="#F1F1F1" style="stroke:#181818;stroke-width:0.5;"/><path d="M36,556.5137 C36,566.5137 115,566.5137 115,566.5137 C115,566.5137 194,566.5137 194,556.5137 " fill="none" style="stroke:#181818;stroke-width:0.5;"/><text fill="#000000" font-family="sans-serif" font-size="14" lengthAdjust="spacing" textLength="138" x="46" y="585.6211">Firebase Realtime DB</text></g><!--MD5=[10fb712a5dfe6528bb3d0328de120a66]
entity documentdb--><g id="elem_documentdb"><path d="M255.5,684.0137 C255.5,674.0137 339,674.0137 339,674.0137 C339,674.0137 422.5,674.0137 422.5,684.0137 L422.5,711.6348 C422.5,721.6348 339,721.6348 339,721.6348 C339,721.6348 255.5,721.6348 255.5,711.6348 L255.5,684.0137 " fill="#F1F1F1" style="stroke:#181818;stroke-width:0.5;"/><path d="M255.5,684.0137 C255.5,694.0137 339,694.0137 339,694.0137 C339,694.0137 422.5,694.0137 422.5,684.0137 " fill="none" style="stroke:#181818;stroke-width:0.5;"/><text fill="#000000" font-family="sans-serif" font-size="14" lengthAdjust="spacing" textLength="147" x="265.5" y="713.1211">Firebase Document DB</text></g><!--MD5=[e2307af040e3f87d22824e7603ca28ec]
entity api--><g id="elem_api"><rect fill="#F1F1F1" height="48.6211" rx="2.5" ry="2.5" style="stroke:#181818;stroke-width:0.5;" width="61" x="308.5" y="546.0137"/><rect fill="#F1F1F1" height="10" style="stroke:#181818;stroke-width:0.5;" width="15" x="349.5" y="551.0137"/><rect fill="#F1F1F1" height="2" style="stroke:#181818;stroke-width:0.5;" width="4" x="347.5" y="553.0137"/><rect fill="#F1F1F1" height="2" style="stroke:#181818;stroke-width:0.5;" width="4" x="347.5" y="557.0137"/><text fill="#000000" font-family="sans-serif" font-size="14" lengthAdjust="spacing" textLength="21" x="323.5" y="581.1211">API</text></g><!--MD5=[08af8945a84acfe1eabc0963aa87c412]
entity web--><g id="elem_web"><rect fill="#F1F1F1" height="48.6211" rx="2.5" ry="2.5" style="stroke:#181818;stroke-width:0.5;" width="81" x="452.5" y="546.0137"/><rect fill="#F1F1F1" height="10" style="stroke:#181818;stroke-width:0.5;" width="15" x="513.5" y="551.0137"/><rect fill="#F1F1F1" height="2" style="stroke:#181818;stroke-width:0.5;" width="4" x="511.5" y="553.0137"/><rect fill="#F1F1F1" height="2" style="stroke:#181818;stroke-width:0.5;" width="4" x="511.5" y="557.0137"/><text fill="#000000" font-family="sans-serif" font-size="14" lengthAdjust="spacing" textLength="41" x="467.5" y="581.1211">WebUI</text></g><!--MD5=[03ab46b63510a1bc4c5deaa7913274bc]
link sensor1 to py--><g id="link_sensor1_py"><path d="M637.51,141.0037 C616.35,162.1637 587.25,191.2637 566.17,212.3437 " fill="none" id="sensor1-py" style="stroke:#181818;stroke-width:1.0;"/><polygon fill="#181818" points="641.3,137.2137,632.1076,140.7492,637.7645,140.7492,637.7645,146.4061,641.3,137.2137" style="stroke:#181818;stroke-width:1.0;"/><polygon fill="#181818" points="562.59,215.9237,571.7824,212.3881,566.1255,212.3881,566.1255,206.7313,562.59,215.9237" style="stroke:#181818;stroke-width:1.0;"/><text fill="#000000" font-family="sans-serif" font-size="13" lengthAdjust="spacing" textLength="71" x="610" y="182.042">check depth</text></g><!--MD5=[a39380c0489b8f04fab433e1caaef46b]
reverse link actuator1 to py--><g id="link_actuator1_py"><path d="M508.08,142.1237 C515.16,164.4237 524.87,195.0137 531.51,215.9237 " fill="none" id="actuator1-backto-py" style="stroke:#181818;stroke-width:1.0;"/><polygon fill="#181818" points="506.52,137.2137,505.4116,147,508.0236,141.9822,513.0413,144.5942,506.52,137.2137" style="stroke:#181818;stroke-width:1.0;"/><text fill="#000000" font-family="sans-serif" font-size="13" lengthAdjust="spacing" textLength="34" x="522" y="182.042">signal</text></g><!--MD5=[7358dbe33938ff8b571ae4a968443b74]
link py to sensor2--><g id="link_py_sensor2"><path d="M539,270.2537 C539,296.9637 539,336.5637 539,363.3937 " fill="none" id="py-sensor2" style="stroke:#181818;stroke-width:1.0;"/><polygon fill="#181818" points="539,265.1037,535,274.1037,539,270.1037,543,274.1037,539,265.1037" style="stroke:#181818;stroke-width:1.0;"/><polygon fill="#181818" points="539,368.5837,543,359.5837,539,363.5837,535,359.5837,539,368.5837" style="stroke:#181818;stroke-width:1.0;"/><text fill="#000000" font-family="sans-serif" font-size="13" lengthAdjust="spacing" textLength="71" x="540" y="312.042">check depth</text></g><!--MD5=[4486c283d151e8296fdd014d00826c51]
link py to actuator2--><g id="link_py_actuator2"><path d="M577.5,265.1237 C591.44,274.3737 606.95,285.5237 620,297.0137 C643.58,317.7837 667.07,344.7837 683.36,364.7737 " fill="none" id="py-to-actuator2" style="stroke:#181818;stroke-width:1.0;"/><polygon fill="#181818" points="686.52,368.6737,683.9702,359.1606,683.3757,364.7861,677.7501,364.1915,686.52,368.6737" style="stroke:#181818;stroke-width:1.0;"/><text fill="#000000" font-family="sans-serif" font-size="13" lengthAdjust="spacing" textLength="34" x="638" y="312.042">signal</text></g><!--MD5=[278ddf8958b300a63359527ac5445171]
link sensorGate to py2--><g id="link_sensorGate_py2"><path d="M327,142.4037 C327,162.9437 327,190.3937 327,210.8737 " fill="none" id="sensorGate-py2" style="stroke:#181818;stroke-width:1.0;"/><polygon fill="#181818" points="327,137.2137,323,146.2137,327,142.2137,331,146.2137,327,137.2137" style="stroke:#181818;stroke-width:1.0;"/><polygon fill="#181818" points="327,215.9237,331,206.9237,327,210.9237,323,206.9237,327,215.9237" style="stroke:#181818;stroke-width:1.0;"/><text fill="#000000" font-family="sans-serif" font-size="13" lengthAdjust="spacing" textLength="53" x="328" y="182.042">read chip</text></g><!--MD5=[0bc4d55b9964f620ef06535e92cba4e1]
reverse link actuatorGate to py2--><g id="link_actuatorGate_py2"><path d="M168.71,240.5137 C196.31,240.5137 228.71,240.5137 256.98,240.5137 " fill="none" id="actuatorGate-backto-py2" style="stroke:#181818;stroke-width:1.0;"/><polygon fill="#181818" points="163.62,240.5137,172.62,244.5137,168.62,240.5137,172.62,236.5137,163.62,240.5137" style="stroke:#181818;stroke-width:1.0;"/><text fill="#000000" font-family="sans-serif" font-size="13" lengthAdjust="spacing" textLength="57" x="181.75" y="233.542">open gate</text></g><!--MD5=[85b0442cfe792b757f7be500bab2e067]
link py to distributor--><g id="link_py_distributor"><path d="M503.71,268.1637 C467.4,295.5637 411.16,338.0337 374.7,365.5537 " fill="none" id="py-distributor" style="stroke:#181818;stroke-width:1.0;"/><polygon fill="#181818" points="507.75,265.1037,498.1538,267.3202,503.7552,268.1105,502.9648,273.7119,507.75,265.1037" style="stroke:#181818;stroke-width:1.0;"/><polygon fill="#181818" points="370.36,368.8337,379.96,366.6337,374.36,365.8337,375.16,360.2337,370.36,368.8337" style="stroke:#181818;stroke-width:1.0;"/></g><!--MD5=[e54ed6e8443b6783ea982d63d0c8d761]
link py2 to distributor--><g id="link_py2_distributor"><path d="M329.28,270.2537 C331.41,296.9637 334.55,336.5637 336.69,363.3937 " fill="none" id="py2-distributor" style="stroke:#181818;stroke-width:1.0;"/><polygon fill="#181818" points="328.88,265.1037,325.6126,274.3947,329.2799,270.0877,333.5869,273.755,328.88,265.1037" style="stroke:#181818;stroke-width:1.0;"/><polygon fill="#181818" points="337.1,368.5837,340.3674,359.2926,336.7001,363.5997,332.3931,359.9324,337.1,368.5837" style="stroke:#181818;stroke-width:1.0;"/><text fill="#000000" font-family="sans-serif" font-size="13" lengthAdjust="spacing" textLength="78" x="333" y="312.042">Wi-Fi (MQTT)</text></g><!--MD5=[0fdc04f3ec110560e916c43c65cc97a2]
link api to web--><g id="link_api_web"><path d="M374.92,570.5137 C396.47,570.5137 424.07,570.5137 447.17,570.5137 " fill="none" id="api-web" style="stroke:#181818;stroke-width:1.0;"/><polygon fill="#181818" points="369.79,570.5137,378.79,574.5137,374.79,570.5137,378.79,566.5137,369.79,570.5137" style="stroke:#181818;stroke-width:1.0;"/><polygon fill="#181818" points="452.33,570.5137,443.33,566.5137,447.33,570.5137,443.33,574.5137,452.33,570.5137" style="stroke:#181818;stroke-width:1.0;"/><text fill="#000000" font-family="sans-serif" font-size="13" lengthAdjust="spacing" textLength="46" x="388" y="563.542">sockets</text></g><!--MD5=[0fdc04f3ec110560e916c43c65cc97a2]
link api to web--><g id="link_api_web"><path d="M374.43,585.8237 C382.37,588.6037 390.86,591.0637 399,592.5137 C414.86,595.3337 432.07,592.9337 447.37,588.8337 " fill="none" id="api-web-1" style="stroke:#181818;stroke-width:1.0;"/><polygon fill="#181818" points="369.57,584.0637,376.6728,590.8864,374.2719,585.7644,379.3939,583.3634,369.57,584.0637" style="stroke:#181818;stroke-width:1.0;"/><polygon fill="#181818" points="452.48,587.3837,442.7285,586.0024,447.6713,588.7535,444.9202,593.6963,452.48,587.3837" style="stroke:#181818;stroke-width:1.0;"/><text fill="#000000" font-family="sans-serif" font-size="13" lengthAdjust="spacing" textLength="22" x="400" y="588.542">http</text></g><!--MD5=[12057265364c754ec029131704a0dc32]
link realtimedb to api--><g id="link_realtimedb_api"><path d="M199.4,570.5137 C235.31,570.5137 275.26,570.5137 303.19,570.5137 " fill="none" id="realtimedb-api" style="stroke:#181818;stroke-width:1.0;"/><polygon fill="#181818" points="194.29,570.5137,203.29,574.5137,199.29,570.5137,203.29,566.5137,194.29,570.5137" style="stroke:#181818;stroke-width:1.0;"/><polygon fill="#181818" points="308.26,570.5137,299.26,566.5137,303.26,570.5137,299.26,574.5137,308.26,570.5137" style="stroke:#181818;stroke-width:1.0;"/><text fill="#000000" font-family="sans-serif" font-size="13" lengthAdjust="spacing" textLength="78" x="212.25" y="563.542">dynamic data</text></g><!--MD5=[3b08bbfb039112ccffaa42ca08d03cbb]
link api to documentdb--><g id="link_api_documentdb"><path d="M339,600.3237 C339,620.9137 339,648.4737 339,668.9037 " fill="none" id="api-documentdb" style="stroke:#181818;stroke-width:1.0;"/><polygon fill="#181818" points="339,595.1237,335,604.1237,339,600.1237,343,604.1237,339,595.1237" style="stroke:#181818;stroke-width:1.0;"/><polygon fill="#181818" points="339,673.9337,343,664.9337,339,668.9337,335,664.9337,339,673.9337" style="stroke:#181818;stroke-width:1.0;"/><text fill="#000000" font-family="sans-serif" font-size="13" lengthAdjust="spacing" textLength="61" x="340" y="640.042">static data</text></g><!--MD5=[8801b18f9bbfdb8b6bb06c85efdd0409]
link distributor to api--><g id="link_distributor_api"><path d="M339,423.4237 C339,455.9837 339,508.5837 339,540.9837 " fill="none" id="distributor-api" style="stroke:#181818;stroke-width:1.0;"/><polygon fill="#181818" points="339,418.1137,335,427.1137,339,423.1137,343,427.1137,339,418.1137" style="stroke:#181818;stroke-width:1.0;"/><polygon fill="#181818" points="339,546.0037,343,537.0037,339,541.0037,335,537.0037,339,546.0037" style="stroke:#181818;stroke-width:1.0;"/><text fill="#000000" font-family="sans-serif" font-size="13" lengthAdjust="spacing" textLength="46" x="340" y="489.042">sockets</text></g><!--MD5=[ddfbb7003251eace3cee6fe9ddf40fa2]
@startuml

package Garage {
    package Spot {
        component "Ultrasonic Sensor [1]" as sensor1
        component "Light [1]" as actuator1

        component "Ultrasonic Sensor [2]" as sensor2
        component "Light [2]" as actuator2

        component "Micro Controller" as py

        sensor1 <-d-> py : check depth
        actuator1 <-d- py : signal

        sensor2 <-u-> py : check depth
        actuator2 <-u- py : signal
    }

    package Gate {
        component "RFID Sensor" as sensorGate
        component "Micro Controller" as py2
        component "Servo Motor" as actuatorGate

        sensorGate <-d-> py2 : read chip
        actuatorGate <-r- py2 : open gate
    }

    package Gateway {
        component Distributor as distributor
    }

    py <- -> distributor
    py2 <- -> distributor : Wi-Fi (MQTT)
}

package Cloud {
    database "Firebase Realtime DB" as realtimedb
    database "Firebase Document DB" as documentdb

    component API as api

    component WebUI as web

    api <-r-> web : sockets
    api <-r-> web : http

    api <-l-> realtimedb : dynamic data
    api <- -> documentdb : static data

    distributor <- -> api : sockets
}

@enduml

PlantUML version 1.2022.13(Sat Nov 19 14:22:17 CET 2022)
(GPL source distribution)
Java Runtime: OpenJDK Runtime Environment
JVM: OpenJDK 64-Bit Server VM
Default Encoding: Cp1252
Language: de
Country: DE
--></g></svg>