<?xml version="1.0" encoding="UTF-8" standalone="no"?><svg xmlns="http://www.w3.org/2000/svg" xmlns:xlink="http://www.w3.org/1999/xlink" contentStyleType="text/css" height="541px" preserveAspectRatio="none" style="width:796px;height:541px;background:#FFFFFF;" version="1.1" viewBox="0 0 796 541" width="796px" zoomAndPan="magnify"><defs/><g><!--MD5=[73dcb3dffa240e46e39ac1e9e35e140a]
cluster documentdb--><g id="cluster_documentdb"><path d="M74.5,200 L236.5,200 A3.75,3.75 0 0 1 239,202.5 L246,221.6406 L784.5,221.6406 A2.5,2.5 0 0 1 787,224.1406 L787,531.5 A2.5,2.5 0 0 1 784.5,534 L74.5,534 A2.5,2.5 0 0 1 72,531.5 L72,202.5 A2.5,2.5 0 0 1 74.5,200 " fill="none" style="stroke:#000000;stroke-width:1.5;"/><line style="stroke:#000000;stroke-width:1.5;" x1="72" x2="246" y1="221.6406" y2="221.6406"/><text fill="#000000" font-family="sans-serif" font-size="14" font-weight="bold" lengthAdjust="spacing" textLength="161" x="76" y="214.6738">Firebase Document DB</text></g><!--MD5=[66d66369980232c680ed4ec5287a925f]
cluster realtimedb--><g id="cluster_realtimedb"><path d="M439.5,6 L591.5,6 A3.75,3.75 0 0 1 594,8.5 L601,27.6406 L786.5,27.6406 A2.5,2.5 0 0 1 789,30.1406 L789,165.5 A2.5,2.5 0 0 1 786.5,168 L439.5,168 A2.5,2.5 0 0 1 437,165.5 L437,8.5 A2.5,2.5 0 0 1 439.5,6 " fill="none" style="stroke:#000000;stroke-width:1.5;"/><line style="stroke:#000000;stroke-width:1.5;" x1="437" x2="601" y1="27.6406" y2="27.6406"/><text fill="#000000" font-family="sans-serif" font-size="14" font-weight="bold" lengthAdjust="spacing" textLength="151" x="441" y="20.6738">Firebase Realtime DB</text></g><!--MD5=[9b483aa89f34cf1bdd90ddcb81313a4b]
class Garage--><g id="elem_Garage"><rect codeLine="6" fill="#F1F1F1" height="96.2031" id="Garage" rx="2.5" ry="2.5" style="stroke:#181818;stroke-width:0.5;" width="192" x="295" y="242"/><text fill="#000000" font-family="sans-serif" font-size="14" lengthAdjust="spacing" textLength="48" x="367" y="259.6738">Garage</text><line style="stroke:#181818;stroke-width:0.5;" x1="296" x2="486" y1="267.6406" y2="267.6406"/><text fill="#000000" font-family="sans-serif" font-size="14" lengthAdjust="spacing" textLength="15" x="301" y="284.3145">id:</text><text fill="#000000" font-family="sans-serif" font-size="14" lengthAdjust="spacing" textLength="48" x="433" y="284.3145">number</text><text fill="#000000" font-family="sans-serif" font-size="14" lengthAdjust="spacing" textLength="39" x="301" y="299.9551">name:</text><text fill="#000000" font-family="sans-serif" font-size="14" lengthAdjust="spacing" textLength="35" x="433" y="299.9551">string</text><text fill="#000000" font-family="sans-serif" font-size="14" lengthAdjust="spacing" textLength="55" x="301" y="315.5957">address:</text><text fill="#000000" font-family="sans-serif" font-size="14" lengthAdjust="spacing" textLength="35" x="433" y="315.5957">string</text><text fill="#000000" font-family="sans-serif" font-size="14" lengthAdjust="spacing" textLength="96" x="301" y="331.2363">phone number:</text><text fill="#000000" font-family="sans-serif" font-size="14" lengthAdjust="spacing" textLength="35" x="433" y="331.2363">string</text></g><!--MD5=[1c0775d47cd143f9c12ba669ee16d3e8]
class Spot--><g id="elem_Spot"><rect codeLine="13" fill="#F1F1F1" height="80.5625" id="Spot" rx="2.5" ry="2.5" style="stroke:#181818;stroke-width:0.5;" width="160" x="533" y="249.5"/><text fill="#000000" font-family="sans-serif" font-size="14" lengthAdjust="spacing" textLength="29" x="598.5" y="267.1738">Spot</text><line style="stroke:#181818;stroke-width:0.5;" x1="534" x2="692" y1="275.1406" y2="275.1406"/><text fill="#000000" font-family="sans-serif" font-size="14" lengthAdjust="spacing" textLength="15" x="539" y="291.8145">id:</text><text fill="#000000" font-family="sans-serif" font-size="14" lengthAdjust="spacing" textLength="48" x="639" y="291.8145">number</text><text fill="#000000" font-family="sans-serif" font-size="14" lengthAdjust="spacing" textLength="49" x="539" y="307.4551">garage:</text><text fill="#000000" font-family="sans-serif" font-size="14" lengthAdjust="spacing" textLength="48" x="639" y="307.4551">Garage</text><text fill="#000000" font-family="sans-serif" font-size="14" lengthAdjust="spacing" textLength="87" x="539" y="323.0957">localIdentifier:</text><text fill="#000000" font-family="sans-serif" font-size="14" lengthAdjust="spacing" textLength="35" x="639" y="323.0957">string</text></g><!--MD5=[ed5b2c4a98347c8f2491082927366127]
class SpotHistory--><g id="elem_SpotHistory"><rect codeLine="20" fill="#F1F1F1" height="111.8438" id="SpotHistory" rx="2.5" ry="2.5" style="stroke:#181818;stroke-width:0.5;" width="255" x="507.5" y="398"/><text fill="#000000" font-family="sans-serif" font-size="14" lengthAdjust="spacing" textLength="72" x="599" y="415.6738">SpotHistory</text><line style="stroke:#181818;stroke-width:0.5;" x1="508.5" x2="761.5" y1="423.6406" y2="423.6406"/><text fill="#000000" font-family="sans-serif" font-size="14" lengthAdjust="spacing" textLength="15" x="513.5" y="440.3145">id:</text><text fill="#000000" font-family="sans-serif" font-size="14" lengthAdjust="spacing" textLength="48" x="581.5" y="440.3145">number</text><text fill="#000000" font-family="sans-serif" font-size="14" lengthAdjust="spacing" textLength="31" x="513.5" y="455.9551">spot:</text><text fill="#000000" font-family="sans-serif" font-size="14" lengthAdjust="spacing" textLength="29" x="581.5" y="455.9551">Spot</text><text fill="#000000" font-family="sans-serif" font-size="14" lengthAdjust="spacing" textLength="42" x="513.5" y="471.5957">status:</text><text fill="#000000" font-family="sans-serif" font-size="14" lengthAdjust="spacing" textLength="175" x="581.5" y="471.5957">"OCCUPIED" | "AVAILABLE"</text><text fill="#000000" font-family="sans-serif" font-size="14" lengthAdjust="spacing" textLength="32" x="513.5" y="487.2363">from:</text><text fill="#000000" font-family="sans-serif" font-size="14" lengthAdjust="spacing" textLength="61" x="581.5" y="487.2363">DateTime</text><text fill="#000000" font-family="sans-serif" font-size="14" lengthAdjust="spacing" textLength="30" x="513.5" y="502.877">until:</text><text fill="#000000" font-family="sans-serif" font-size="14" lengthAdjust="spacing" textLength="61" x="581.5" y="502.877">DateTime</text></g><!--MD5=[3fd616f346a44cd59a91eb10b19e157c]
class User--><g id="elem_User"><rect codeLine="29" fill="#F1F1F1" height="96.2031" id="User" rx="2.5" ry="2.5" style="stroke:#181818;stroke-width:0.5;" width="160" x="104" y="406"/><text fill="#000000" font-family="sans-serif" font-size="14" lengthAdjust="spacing" textLength="48" x="160" y="423.6738">User (*)</text><line style="stroke:#181818;stroke-width:0.5;" x1="105" x2="263" y1="431.6406" y2="431.6406"/><text fill="#000000" font-family="sans-serif" font-size="14" lengthAdjust="spacing" textLength="15" x="110" y="448.3145">id:</text><text fill="#000000" font-family="sans-serif" font-size="14" lengthAdjust="spacing" textLength="48" x="210" y="448.3145">number</text><text fill="#000000" font-family="sans-serif" font-size="14" lengthAdjust="spacing" textLength="72" x="110" y="463.9551">First Name:</text><text fill="#000000" font-family="sans-serif" font-size="14" lengthAdjust="spacing" textLength="35" x="210" y="463.9551">string</text><text fill="#000000" font-family="sans-serif" font-size="14" lengthAdjust="spacing" textLength="71" x="110" y="479.5957">Last Name:</text><text fill="#000000" font-family="sans-serif" font-size="14" lengthAdjust="spacing" textLength="35" x="210" y="479.5957">string</text><text fill="#000000" font-family="sans-serif" font-size="14" lengthAdjust="spacing" textLength="54" x="110" y="495.2363">balance:</text><text fill="#000000" font-family="sans-serif" font-size="14" lengthAdjust="spacing" textLength="48" x="210" y="495.2363">number</text></g><!--MD5=[4899691ac04b654407999835b9998e46]
class TransactionHistory--><g id="elem_TransactionHistory"><rect codeLine="36" fill="#F1F1F1" height="111.8438" id="TransactionHistory" rx="2.5" ry="2.5" style="stroke:#181818;stroke-width:0.5;" width="173" x="299.5" y="398"/><text fill="#000000" font-family="sans-serif" font-size="14" lengthAdjust="spacing" textLength="137" x="317.5" y="415.6738">TransactionHistory (*)</text><line style="stroke:#181818;stroke-width:0.5;" x1="300.5" x2="471.5" y1="423.6406" y2="423.6406"/><text fill="#000000" font-family="sans-serif" font-size="14" lengthAdjust="spacing" textLength="15" x="305.5" y="440.3145">id:</text><text fill="#000000" font-family="sans-serif" font-size="14" lengthAdjust="spacing" textLength="48" x="405.5" y="440.3145">number</text><text fill="#000000" font-family="sans-serif" font-size="14" lengthAdjust="spacing" textLength="32" x="305.5" y="455.9551">user:</text><text fill="#000000" font-family="sans-serif" font-size="14" lengthAdjust="spacing" textLength="29" x="405.5" y="455.9551">User</text><text fill="#000000" font-family="sans-serif" font-size="14" lengthAdjust="spacing" textLength="49" x="305.5" y="471.5957">garage:</text><text fill="#000000" font-family="sans-serif" font-size="14" lengthAdjust="spacing" textLength="48" x="405.5" y="471.5957">Garage</text><text fill="#000000" font-family="sans-serif" font-size="14" lengthAdjust="spacing" textLength="51" x="305.5" y="487.2363">amount:</text><text fill="#000000" font-family="sans-serif" font-size="14" lengthAdjust="spacing" textLength="48" x="405.5" y="487.2363">number</text><text fill="#000000" font-family="sans-serif" font-size="14" lengthAdjust="spacing" textLength="68" x="305.5" y="502.877">timestamp:</text><text fill="#000000" font-family="sans-serif" font-size="14" lengthAdjust="spacing" textLength="61" x="405.5" y="502.877">DateTime</text></g><!--MD5=[60f924c52828185500e161feeb69a9c5]
class LiveSpot--><g id="elem_LiveSpot"><rect codeLine="48" fill="#F1F1F1" height="111.8438" id="LiveSpot" rx="2.5" ry="2.5" style="stroke:#181818;stroke-width:0.5;" width="319" x="453.5" y="40"/><text fill="#000000" font-family="sans-serif" font-size="14" lengthAdjust="spacing" textLength="55" x="585.5" y="57.6738">LiveSpot</text><line style="stroke:#181818;stroke-width:0.5;" x1="454.5" x2="771.5" y1="65.6406" y2="65.6406"/><text fill="#000000" font-family="sans-serif" font-size="14" lengthAdjust="spacing" textLength="15" x="459.5" y="82.3145">id:</text><text fill="#000000" font-family="sans-serif" font-size="14" lengthAdjust="spacing" textLength="48" x="591.5" y="82.3145">number</text><text fill="#000000" font-family="sans-serif" font-size="14" lengthAdjust="spacing" textLength="31" x="459.5" y="97.9551">spot:</text><text fill="#000000" font-family="sans-serif" font-size="14" lengthAdjust="spacing" textLength="29" x="591.5" y="97.9551">Spot</text><text fill="#000000" font-family="sans-serif" font-size="14" lengthAdjust="spacing" textLength="42" x="459.5" y="113.5957">status:</text><text fill="#000000" font-family="sans-serif" font-size="14" lengthAdjust="spacing" textLength="175" x="591.5" y="113.5957">"OCCUPIED" | "AVAILABLE"</text><text fill="#000000" font-family="sans-serif" font-size="14" lengthAdjust="spacing" textLength="113" x="459.5" y="129.2363">statusChangedAt:</text><text fill="#000000" font-family="sans-serif" font-size="14" lengthAdjust="spacing" textLength="61" x="591.5" y="129.2363">DateTime</text><text fill="#000000" font-family="sans-serif" font-size="14" lengthAdjust="spacing" textLength="89" x="459.5" y="144.877">lastKeepAlive:</text><text fill="#000000" font-family="sans-serif" font-size="14" lengthAdjust="spacing" textLength="61" x="591.5" y="144.877">DateTime</text></g><g id="elem_GMN13643"><path d="M6,83.5 L6,108.0234 L154,108.0234 L154,93.5 L144,83.5 L6,83.5 " fill="#FEFFDD" style="stroke:#181818;stroke-width:0.5;"/><path d="M144,83.5 L144,93.5 L154,93.5 L144,83.5 " fill="#FEFFDD" style="stroke:#181818;stroke-width:1.0;"/><text fill="#000000" font-family="sans-serif" font-size="13" lengthAdjust="spacing" textLength="127" x="12" y="100.2686">(*) Possible extension</text></g><!--MD5=[cd972636951f53f7ffc4fd070d92bacf]
reverse link Garage to Spot--><g id="link_Garage_Spot"><path codeLine="18" d="M492.61,290 C506.05,290 519.5,290 532.94,290 " fill="none" id="Garage-backto-Spot" style="stroke:#181818;stroke-width:1.0;"/><polygon fill="#181818" points="487.26,290,496.26,294,492.26,290,496.26,286,487.26,290" style="stroke:#181818;stroke-width:1.0;"/></g><!--MD5=[b134809d9e80e139a88176057a9eaf21]
reverse link Spot to SpotHistory--><g id="link_Spot_SpotHistory"><path codeLine="27" d="M619.1,335.95 C621.71,355.13 624.77,377.7 627.51,397.88 " fill="none" id="Spot-backto-SpotHistory" style="stroke:#181818;stroke-width:1.0;"/><polygon fill="#181818" points="618.38,330.63,615.6242,340.0854,619.0511,335.5848,623.5518,339.0117,618.38,330.63" style="stroke:#181818;stroke-width:1.0;"/></g><!--MD5=[48ac2c2318e935b1916cf2267033e30e]
reverse link Garage to TransactionHistory--><g id="link_Garage_TransactionHistory"><path codeLine="43" d="M389.38,343.62 C388.84,361 388.24,380.38 387.7,397.94 " fill="none" id="Garage-backto-TransactionHistory" style="stroke:#181818;stroke-width:1.0;"/><polygon fill="#181818" points="389.54,338.29,385.2846,347.1721,389.3972,343.288,393.2813,347.4006,389.54,338.29" style="stroke:#181818;stroke-width:1.0;"/></g><!--MD5=[c528c5b897b2dda24bf6b0f4b3c0d58f]
reverse link User to TransactionHistory--><g id="link_User_TransactionHistory"><path codeLine="44" d="M269.32,454 C279.32,454 289.33,454 299.33,454 " fill="none" id="User-backto-TransactionHistory" style="stroke:#181818;stroke-width:1.0;"/><polygon fill="#181818" points="264.09,454,273.09,458,269.09,454,273.09,450,264.09,454" style="stroke:#181818;stroke-width:1.0;"/></g><!--MD5=[d15edfe224aed7c927d3f58f510770c5]
link LiveSpot to Spot--><g id="link_LiveSpot_Spot"><path codeLine="55" d="M613,152.02 C613,181.23 613,216.67 613,244.18 " fill="none" id="LiveSpot-to-Spot" style="stroke:#181818;stroke-width:1.0;"/><polygon fill="#181818" points="613,249.22,617,240.22,613,244.22,609,240.22,613,249.22" style="stroke:#181818;stroke-width:1.0;"/></g><!--MD5=[f3764f4904b2bc1bd0c7d0486bbbccb5]
link GMN13643 to documentdb--><g id="link_GMN13643_documentdb"><path d="M80,108.72 C80,118.98 80,135.1081 80,153.5948 C80,162.8382 80,172.6712 80,182.6552 C80,187.6472 80,192.6769 80,197.6895 C80,198.3161 80,198.9424 80,199.5683 " fill="none" id="GMN13643-documentdb" style="stroke:#181818;stroke-width:1.0;stroke-dasharray:7.0,7.0;"/></g><!--MD5=[1fcd4caf17cea9fb52873ff9639776b3]
@startuml

hide circle
hide empty method

package "Firebase Document DB" as documentdb {
    class Garage {
        id: \t\t\t\t number
        name: \t\t\t string
        address: \t\t\t string
        phone number: \t string
    }

    class Spot {
        id: \t\t\t number
        garage: \t\t Garage
        localIdentifier: \t string
    }
    Garage <-r- Spot

    class SpotHistory {
        id: \t\t number
        spot: \t Spot
        status: \t "OCCUPIED" | "AVAILABLE"
        from: \t DateTime
        until: \t DateTime
    }
    SpotHistory -u-> Spot

    class "User (*)" as User {
        id: \t\t\t number
        First Name: \t string
        Last Name: \t string
        balance: \t\t number
    }

    class "TransactionHistory (*)" as TransactionHistory {
        id: \t\t\t number
        user: \t\t User
        garage: \t\t Garage
        amount: \t\t number
        timestamp: \t DateTime
    }
    TransactionHistory -u-> Garage
    TransactionHistory -l-> User
}

package "Firebase Realtime DB" as realtimedb {
    class LiveSpot {
        id: \t\t\t\t number
        spot: \t\t\t Spot
        status: \t\t\t "OCCUPIED" | "AVAILABLE"
        statusChangedAt: \t DateTime
        lastKeepAlive: \t\t DateTime
    }
    LiveSpot -d-> Spot
}

note top of documentdb : (*) Possible extension

@enduml

PlantUML version 1.2022.7(Mon Aug 22 19:01:30 CEST 2022)
(GPL source distribution)
Java Runtime: OpenJDK Runtime Environment
JVM: OpenJDK 64-Bit Server VM
Default Encoding: Cp1252
Language: de
Country: DE
--></g></svg>